<mxfile host="app.diagrams.net" modified="2023-01-08T14:32:12.206Z" agent="5.0 (Macintosh; Intel Mac OS X 10_15_7) AppleWebKit/537.36 (KHTML, like Gecko) Chrome/108.0.0.0 Safari/537.36" etag="KE-ZB9Ne8_1B2fNwedrB" version="20.6.2" type="github">
  <diagram id="FJFMF_cU8nMcQ_dSxDxe" name="페이지-1">
    <mxGraphModel dx="-306" dy="386" grid="1" gridSize="10" guides="1" tooltips="1" connect="1" arrows="1" fold="1" page="0" pageScale="1" pageWidth="827" pageHeight="1169" math="0" shadow="0">
      <root>
        <mxCell id="0" />
        <mxCell id="1" parent="0" />
        <mxCell id="HQHib-eTLAuZ_EJEV0sq-29" value="domain" style="shape=umlFrame;whiteSpace=wrap;html=1;" parent="1" vertex="1">
          <mxGeometry x="3070" y="570" width="630" height="530" as="geometry" />
        </mxCell>
        <mxCell id="HQHib-eTLAuZ_EJEV0sq-5" value="Model" style="shape=umlFrame;whiteSpace=wrap;html=1;" parent="1" vertex="1">
          <mxGeometry x="2190" y="570" width="380" height="550" as="geometry" />
        </mxCell>
        <mxCell id="HQHib-eTLAuZ_EJEV0sq-1" value="Coach" style="swimlane;fontStyle=1;align=center;verticalAlign=top;childLayout=stackLayout;horizontal=1;startSize=26;horizontalStack=0;resizeParent=1;resizeParentMax=0;resizeLast=0;collapsible=1;marginBottom=0;" parent="1" vertex="1">
          <mxGeometry x="2210" y="620" width="340" height="216" as="geometry" />
        </mxCell>
        <mxCell id="HQHib-eTLAuZ_EJEV0sq-2" value="- name: String" style="text;strokeColor=none;fillColor=none;align=left;verticalAlign=top;spacingLeft=4;spacingRight=4;overflow=hidden;rotatable=0;points=[[0,0.5],[1,0.5]];portConstraint=eastwest;" parent="HQHib-eTLAuZ_EJEV0sq-1" vertex="1">
          <mxGeometry y="26" width="340" height="26" as="geometry" />
        </mxCell>
        <mxCell id="HQHib-eTLAuZ_EJEV0sq-6" value="- cantEatMenus: List&lt;String&gt;" style="text;strokeColor=none;fillColor=none;align=left;verticalAlign=top;spacingLeft=4;spacingRight=4;overflow=hidden;rotatable=0;points=[[0,0.5],[1,0.5]];portConstraint=eastwest;" parent="HQHib-eTLAuZ_EJEV0sq-1" vertex="1">
          <mxGeometry y="52" width="340" height="26" as="geometry" />
        </mxCell>
        <mxCell id="HQHib-eTLAuZ_EJEV0sq-7" value="- recommendedMenus: List&lt;String&gt;" style="text;strokeColor=none;fillColor=none;align=left;verticalAlign=top;spacingLeft=4;spacingRight=4;overflow=hidden;rotatable=0;points=[[0,0.5],[1,0.5]];portConstraint=eastwest;" parent="HQHib-eTLAuZ_EJEV0sq-1" vertex="1">
          <mxGeometry y="78" width="340" height="26" as="geometry" />
        </mxCell>
        <mxCell id="HQHib-eTLAuZ_EJEV0sq-3" value="" style="line;strokeWidth=1;fillColor=none;align=left;verticalAlign=middle;spacingTop=-1;spacingLeft=3;spacingRight=3;rotatable=0;labelPosition=right;points=[];portConstraint=eastwest;strokeColor=inherit;" parent="HQHib-eTLAuZ_EJEV0sq-1" vertex="1">
          <mxGeometry y="104" width="340" height="8" as="geometry" />
        </mxCell>
        <mxCell id="HQHib-eTLAuZ_EJEV0sq-4" value="+ containsCantEatMenus(menu: String): Boolean" style="text;strokeColor=none;fillColor=none;align=left;verticalAlign=top;spacingLeft=4;spacingRight=4;overflow=hidden;rotatable=0;points=[[0,0.5],[1,0.5]];portConstraint=eastwest;" parent="HQHib-eTLAuZ_EJEV0sq-1" vertex="1">
          <mxGeometry y="112" width="340" height="26" as="geometry" />
        </mxCell>
        <mxCell id="513HBcPauUH8Qse7BMwf-3" value="+ setRecommendedMenus(recommendMenus: List&lt;String&gt;)" style="text;strokeColor=none;fillColor=none;align=left;verticalAlign=top;spacingLeft=4;spacingRight=4;overflow=hidden;rotatable=0;points=[[0,0.5],[1,0.5]];portConstraint=eastwest;" vertex="1" parent="HQHib-eTLAuZ_EJEV0sq-1">
          <mxGeometry y="138" width="340" height="26" as="geometry" />
        </mxCell>
        <mxCell id="HQHib-eTLAuZ_EJEV0sq-8" value="+ getName(): String" style="text;strokeColor=none;fillColor=none;align=left;verticalAlign=top;spacingLeft=4;spacingRight=4;overflow=hidden;rotatable=0;points=[[0,0.5],[1,0.5]];portConstraint=eastwest;" parent="HQHib-eTLAuZ_EJEV0sq-1" vertex="1">
          <mxGeometry y="164" width="340" height="26" as="geometry" />
        </mxCell>
        <mxCell id="HQHib-eTLAuZ_EJEV0sq-9" value="+ getRecommendedMenus(): List&lt;String&gt;" style="text;strokeColor=none;fillColor=none;align=left;verticalAlign=top;spacingLeft=4;spacingRight=4;overflow=hidden;rotatable=0;points=[[0,0.5],[1,0.5]];portConstraint=eastwest;" parent="HQHib-eTLAuZ_EJEV0sq-1" vertex="1">
          <mxGeometry y="190" width="340" height="26" as="geometry" />
        </mxCell>
        <mxCell id="HQHib-eTLAuZ_EJEV0sq-10" value="MenuBoard" style="swimlane;fontStyle=1;align=center;verticalAlign=top;childLayout=stackLayout;horizontal=1;startSize=26;horizontalStack=0;resizeParent=1;resizeParentMax=0;resizeLast=0;collapsible=1;marginBottom=0;" parent="1" vertex="1">
          <mxGeometry x="2210" y="860" width="340" height="216" as="geometry" />
        </mxCell>
        <mxCell id="HQHib-eTLAuZ_EJEV0sq-11" value="- allMenus: List&lt;List&lt;String&gt;&gt; = List&lt;List&lt;String&gt;&gt; (6)" style="text;strokeColor=none;fillColor=none;align=left;verticalAlign=top;spacingLeft=4;spacingRight=4;overflow=hidden;rotatable=0;points=[[0,0.5],[1,0.5]];portConstraint=eastwest;" parent="HQHib-eTLAuZ_EJEV0sq-10" vertex="1">
          <mxGeometry y="26" width="340" height="26" as="geometry" />
        </mxCell>
        <mxCell id="HQHib-eTLAuZ_EJEV0sq-14" value="" style="line;strokeWidth=1;fillColor=none;align=left;verticalAlign=middle;spacingTop=-1;spacingLeft=3;spacingRight=3;rotatable=0;labelPosition=right;points=[];portConstraint=eastwest;strokeColor=inherit;" parent="HQHib-eTLAuZ_EJEV0sq-10" vertex="1">
          <mxGeometry y="52" width="340" height="8" as="geometry" />
        </mxCell>
        <mxCell id="HQHib-eTLAuZ_EJEV0sq-15" value="+ getMenuCategory(menu: String): String" style="text;strokeColor=none;fillColor=none;align=left;verticalAlign=top;spacingLeft=4;spacingRight=4;overflow=hidden;rotatable=0;points=[[0,0.5],[1,0.5]];portConstraint=eastwest;" parent="HQHib-eTLAuZ_EJEV0sq-10" vertex="1">
          <mxGeometry y="60" width="340" height="26" as="geometry" />
        </mxCell>
        <mxCell id="HQHib-eTLAuZ_EJEV0sq-16" value="+ getCategoryMenus(categoryName: String): List&lt;String&gt;" style="text;strokeColor=none;fillColor=none;align=left;verticalAlign=top;spacingLeft=4;spacingRight=4;overflow=hidden;rotatable=0;points=[[0,0.5],[1,0.5]];portConstraint=eastwest;" parent="HQHib-eTLAuZ_EJEV0sq-10" vertex="1">
          <mxGeometry y="86" width="340" height="26" as="geometry" />
        </mxCell>
        <mxCell id="HQHib-eTLAuZ_EJEV0sq-20" value="+ countMaxCategoryNumber(findMenus: List&lt;String&gt;): Int" style="text;strokeColor=none;fillColor=none;align=left;verticalAlign=top;spacingLeft=4;spacingRight=4;overflow=hidden;rotatable=0;points=[[0,0.5],[1,0.5]];portConstraint=eastwest;" parent="HQHib-eTLAuZ_EJEV0sq-10" vertex="1">
          <mxGeometry y="112" width="340" height="26" as="geometry" />
        </mxCell>
        <mxCell id="513HBcPauUH8Qse7BMwf-2" value="- countMatch(list1: List&lt;String&gt;, list2: List&lt;String&gt;): Int" style="text;strokeColor=none;fillColor=none;align=left;verticalAlign=top;spacingLeft=4;spacingRight=4;overflow=hidden;rotatable=0;points=[[0,0.5],[1,0.5]];portConstraint=eastwest;" vertex="1" parent="HQHib-eTLAuZ_EJEV0sq-10">
          <mxGeometry y="138" width="340" height="26" as="geometry" />
        </mxCell>
        <mxCell id="HQHib-eTLAuZ_EJEV0sq-31" value="- getMenuCategoryIndex(categoryName: String): Int" style="text;strokeColor=none;fillColor=none;align=left;verticalAlign=top;spacingLeft=4;spacingRight=4;overflow=hidden;rotatable=0;points=[[0,0.5],[1,0.5]];portConstraint=eastwest;" parent="HQHib-eTLAuZ_EJEV0sq-10" vertex="1">
          <mxGeometry y="164" width="340" height="26" as="geometry" />
        </mxCell>
        <mxCell id="513HBcPauUH8Qse7BMwf-1" value="- getMenuCategoryName(categoryIndex: Int): String" style="text;strokeColor=none;fillColor=none;align=left;verticalAlign=top;spacingLeft=4;spacingRight=4;overflow=hidden;rotatable=0;points=[[0,0.5],[1,0.5]];portConstraint=eastwest;" vertex="1" parent="HQHib-eTLAuZ_EJEV0sq-10">
          <mxGeometry y="190" width="340" height="26" as="geometry" />
        </mxCell>
        <mxCell id="HQHib-eTLAuZ_EJEV0sq-21" value="Generator" style="swimlane;fontStyle=1;align=center;verticalAlign=top;childLayout=stackLayout;horizontal=1;startSize=26;horizontalStack=0;resizeParent=1;resizeParentMax=0;resizeLast=0;collapsible=1;marginBottom=0;" parent="1" vertex="1">
          <mxGeometry x="3090" y="620" width="560" height="78" as="geometry" />
        </mxCell>
        <mxCell id="HQHib-eTLAuZ_EJEV0sq-26" value="+ recommendCategories(daysSize: Int, menuBoard: MenuBoard): List&lt;String&gt;" style="text;strokeColor=none;fillColor=none;align=left;verticalAlign=top;spacingLeft=4;spacingRight=4;overflow=hidden;rotatable=0;points=[[0,0.5],[1,0.5]];portConstraint=eastwest;" parent="HQHib-eTLAuZ_EJEV0sq-21" vertex="1">
          <mxGeometry y="26" width="560" height="26" as="geometry" />
        </mxCell>
        <mxCell id="HQHib-eTLAuZ_EJEV0sq-27" value="+ recommendMenus(coach: Coach, menuBoard: MenuBoard, categories: List&lt;String&gt;): List&lt;String&gt;" style="text;strokeColor=none;fillColor=none;align=left;verticalAlign=top;spacingLeft=4;spacingRight=4;overflow=hidden;rotatable=0;points=[[0,0.5],[1,0.5]];portConstraint=eastwest;" parent="HQHib-eTLAuZ_EJEV0sq-21" vertex="1">
          <mxGeometry y="52" width="560" height="26" as="geometry" />
        </mxCell>
        <mxCell id="HQHib-eTLAuZ_EJEV0sq-30" value="&lt;meta charset=&quot;utf-8&quot;&gt;&lt;strong style=&quot;box-sizing: border-box; font-weight: var(--base-text-weight-semibold, 600); color: rgb(14, 17, 22); font-family: -apple-system, &amp;quot;system-ui&amp;quot;, &amp;quot;Segoe UI&amp;quot;, &amp;quot;Noto Sans&amp;quot;, Helvetica, Arial, sans-serif, &amp;quot;Apple Color Emoji&amp;quot;, &amp;quot;Segoe UI Emoji&amp;quot;; font-size: 16px; font-style: normal; font-variant-ligatures: normal; font-variant-caps: normal; letter-spacing: normal; orphans: 2; text-align: left; text-indent: 0px; text-transform: none; widows: 2; word-spacing: 0px; -webkit-text-stroke-width: 0px; background-color: rgb(255, 255, 255); text-decoration-thickness: initial; text-decoration-style: initial; text-decoration-color: initial;&quot;&gt;1이면 일식, 2면 한식, 3이면 중식, 4면 아시안, 5면 양식&lt;/strong&gt;" style="text;whiteSpace=wrap;html=1;" parent="1" vertex="1">
          <mxGeometry x="2290" y="480" width="390" height="40" as="geometry" />
        </mxCell>
        <mxCell id="HQHib-eTLAuZ_EJEV0sq-33" value="Controller" style="shape=umlFrame;whiteSpace=wrap;html=1;" parent="1" vertex="1">
          <mxGeometry x="2630" y="570" width="380" height="550" as="geometry" />
        </mxCell>
        <mxCell id="HQHib-eTLAuZ_EJEV0sq-34" value="ServiceController" style="swimlane;fontStyle=1;align=center;verticalAlign=top;childLayout=stackLayout;horizontal=1;startSize=26;horizontalStack=0;resizeParent=1;resizeParentMax=0;resizeLast=0;collapsible=1;marginBottom=0;" parent="1" vertex="1">
          <mxGeometry x="2660" y="620" width="320" height="216" as="geometry" />
        </mxCell>
        <mxCell id="HQHib-eTLAuZ_EJEV0sq-35" value="- inputView: InputView" style="text;strokeColor=none;fillColor=none;align=left;verticalAlign=top;spacingLeft=4;spacingRight=4;overflow=hidden;rotatable=0;points=[[0,0.5],[1,0.5]];portConstraint=eastwest;" parent="HQHib-eTLAuZ_EJEV0sq-34" vertex="1">
          <mxGeometry y="26" width="320" height="26" as="geometry" />
        </mxCell>
        <mxCell id="HQHib-eTLAuZ_EJEV0sq-36" value="- outputView: OutputView" style="text;strokeColor=none;fillColor=none;align=left;verticalAlign=top;spacingLeft=4;spacingRight=4;overflow=hidden;rotatable=0;points=[[0,0.5],[1,0.5]];portConstraint=eastwest;" parent="HQHib-eTLAuZ_EJEV0sq-34" vertex="1">
          <mxGeometry y="52" width="320" height="26" as="geometry" />
        </mxCell>
        <mxCell id="HQHib-eTLAuZ_EJEV0sq-37" value="- generator: Generator" style="text;strokeColor=none;fillColor=none;align=left;verticalAlign=top;spacingLeft=4;spacingRight=4;overflow=hidden;rotatable=0;points=[[0,0.5],[1,0.5]];portConstraint=eastwest;" parent="HQHib-eTLAuZ_EJEV0sq-34" vertex="1">
          <mxGeometry y="78" width="320" height="26" as="geometry" />
        </mxCell>
        <mxCell id="513HBcPauUH8Qse7BMwf-5" value="- menuBoard: MenuBoard" style="text;strokeColor=none;fillColor=none;align=left;verticalAlign=top;spacingLeft=4;spacingRight=4;overflow=hidden;rotatable=0;points=[[0,0.5],[1,0.5]];portConstraint=eastwest;" vertex="1" parent="HQHib-eTLAuZ_EJEV0sq-34">
          <mxGeometry y="104" width="320" height="26" as="geometry" />
        </mxCell>
        <mxCell id="HQHib-eTLAuZ_EJEV0sq-38" value="" style="line;strokeWidth=1;fillColor=none;align=left;verticalAlign=middle;spacingTop=-1;spacingLeft=3;spacingRight=3;rotatable=0;labelPosition=right;points=[];portConstraint=eastwest;strokeColor=inherit;" parent="HQHib-eTLAuZ_EJEV0sq-34" vertex="1">
          <mxGeometry y="130" width="320" height="8" as="geometry" />
        </mxCell>
        <mxCell id="HQHib-eTLAuZ_EJEV0sq-39" value="+ run()" style="text;strokeColor=none;fillColor=none;align=left;verticalAlign=top;spacingLeft=4;spacingRight=4;overflow=hidden;rotatable=0;points=[[0,0.5],[1,0.5]];portConstraint=eastwest;" parent="HQHib-eTLAuZ_EJEV0sq-34" vertex="1">
          <mxGeometry y="138" width="320" height="26" as="geometry" />
        </mxCell>
        <mxCell id="HQHib-eTLAuZ_EJEV0sq-40" value="+ createCoaches(): List&lt;Coach&gt;" style="text;strokeColor=none;fillColor=none;align=left;verticalAlign=top;spacingLeft=4;spacingRight=4;overflow=hidden;rotatable=0;points=[[0,0.5],[1,0.5]];portConstraint=eastwest;" parent="HQHib-eTLAuZ_EJEV0sq-34" vertex="1">
          <mxGeometry y="164" width="320" height="26" as="geometry" />
        </mxCell>
        <mxCell id="HQHib-eTLAuZ_EJEV0sq-41" value="+ setCoachesRecommendations(coaches: List&lt;Coach&gt;)" style="text;strokeColor=none;fillColor=none;align=left;verticalAlign=top;spacingLeft=4;spacingRight=4;overflow=hidden;rotatable=0;points=[[0,0.5],[1,0.5]];portConstraint=eastwest;" parent="HQHib-eTLAuZ_EJEV0sq-34" vertex="1">
          <mxGeometry y="190" width="320" height="26" as="geometry" />
        </mxCell>
      </root>
    </mxGraphModel>
  </diagram>
</mxfile>
